<svg width="2261" height="2500" viewBox="0 0 2261 2500" fill="none" xmlns="http://www.w3.org/2000/svg">
<path d="M1959.66 1234.48C1959.66 1126.72 1872.33 1039.36 1764.62 1039.36C1757.69 1039.36 1750.86 1039.73 1744.11 1040.45L2012 250H873.579L1141.09 1039.75C1137.15 1039.51 1133.19 1039.38 1129.24 1039.37C1021.52 1039.37 934.199 1126.72 934.199 1234.49C934.199 1321.59 991.263 1395.34 1070.01 1420.43C1028.42 1492.51 976.08 1557.44 916.656 1613.53C835.849 1689.79 743.371 1747.62 643.35 1783.25C524.264 1722.05 468.032 1585.94 518.77 1466.6C524.501 1453.12 530.352 1439.46 535.942 1425.86C622.213 1405.71 686.508 1328.34 686.508 1235.89C686.508 1128.12 599.183 1040.76 491.463 1040.76C383.743 1040.76 296.425 1128.12 296.425 1235.89C296.425 1301.97 329.285 1360.34 379.526 1395.64C331.253 1505.6 260.291 1620.68 238.181 1754.06C211.684 1913.9 238.092 2083.58 376.281 2179.4C698.112 2402.56 1047.46 2041.06 1415.79 1950.18C1549.28 1917.26 1695.82 1922.56 1813.43 1854.42C1901.75 1803.24 1959.98 1718.43 1976.5 1623.21C1992.83 1529.15 1969.03 1435.5 1914.3 1359.56C1943.66 1324.51 1959.72 1280.22 1959.66 1234.48Z" fill="#99425B"/>
<path d="M1930.07 1614.5C1915.72 1697.15 1864.66 1769.35 1790.01 1812.59C1720.41 1852.89 1637.01 1864.93 1548.7 1877.65C1501.4 1884.47 1452.49 1891.53 1404.7 1903.31C1278.35 1934.47 1155.97 1995.25 1037.63 2054.03C800.78 2171.67 596.239 2273.25 403.374 2139.59C262.098 2041.68 268.619 1860.54 285.077 1761.27C300.332 1669.31 341.574 1584.61 381.45 1502.7C388.243 1488.78 394.982 1474.83 401.666 1460.86C421.767 1468.89 442.859 1474.19 464.373 1476.59C423.776 1610.55 487.619 1756.22 621.61 1825.05L639.955 1834.47L659.369 1827.56C765.301 1789.83 862.914 1729.3 949.491 1647.62C1005.45 1594.83 1053.57 1536.42 1093.12 1474C1105.15 1475.82 1117.29 1476.73 1129.45 1476.73C1252.43 1476.73 1354.27 1384.8 1370.03 1266.06C1420.37 1264.22 1473.84 1264.21 1524.47 1266.05C1540.21 1384.8 1642.07 1476.74 1765.05 1476.74C1816.48 1476.74 1864.17 1460.62 1903.47 1433.25C1930.75 1489.09 1940.93 1551.92 1930.07 1614.5ZM491.451 1087.94C572.763 1087.94 638.908 1154.09 638.908 1235.39C638.908 1264.59 630.337 1291.83 615.624 1314.76C591.115 1352.98 549.449 1379.18 501.582 1382.45C498.232 1382.67 494.853 1382.84 491.451 1382.84C473.33 1382.84 455.973 1379.53 439.923 1373.53C407.599 1361.38 380.531 1338.32 363.387 1308.35C350.657 1286.14 343.969 1260.99 343.988 1235.39C343.988 1154.09 410.14 1087.94 491.451 1087.94ZM981.999 1233.99C981.999 1160.12 1036.61 1098.78 1107.57 1088.18C1114.71 1087.1 1122.02 1086.54 1129.46 1086.54C1176.73 1086.54 1218.82 1108.93 1245.81 1143.63C1252.57 1152.28 1258.34 1161.66 1263.02 1171.59C1272.19 1191.11 1276.93 1212.42 1276.91 1233.99C1276.91 1245.77 1275.49 1257.23 1272.86 1268.22C1258.49 1328.38 1207.19 1374.36 1144.33 1380.69C1139.44 1381.18 1134.48 1381.43 1129.46 1381.43C1101.09 1381.46 1073.33 1373.25 1049.54 1357.81C1008.94 1331.51 981.999 1285.85 981.999 1233.99ZM1597.44 1058.65C1565.35 1089.28 1542.26 1128.1 1530.66 1170.92C1475.08 1168.87 1419.45 1168.87 1363.87 1170.92C1351.39 1124.63 1325.53 1083.8 1290.73 1052.79L1443.32 744.28L1597.44 1058.65ZM940.163 297.311H1946.06L1708.47 997.961C1698.25 1000.41 1688.2 1003.52 1678.39 1007.28L1443.69 528.549L1208.33 1004.42C1198.07 1000.9 1187.58 998.074 1176.94 995.963L940.163 297.311ZM1912.51 1234C1912.51 1248.77 1910.3 1263.05 1906.24 1276.53C1896.6 1308.26 1876.59 1335.84 1849.4 1354.84C1824.69 1372.18 1795.24 1381.47 1765.05 1381.44C1696.97 1381.44 1639.54 1335.05 1622.65 1272.22C1619.29 1259.76 1617.59 1246.9 1617.6 1234C1617.6 1213.84 1621.67 1194.62 1629.02 1177.11C1632.81 1168.15 1637.49 1159.59 1642.97 1151.55C1669.5 1112.38 1714.28 1086.55 1765.05 1086.55C1769.71 1086.55 1774.3 1086.79 1778.85 1087.22C1853.72 1094.19 1912.51 1157.34 1912.51 1234ZM2007.82 1234C2007.82 1115.48 1922.42 1016.6 1809.95 995.48L2079 202H807.234L1076.7 997.084C968.133 1021.24 886.695 1118.25 886.695 1233.99C886.695 1320.89 932.624 1397.22 1001.46 1440.12C968.348 1489.44 929.089 1535.86 884.096 1578.31C812.737 1645.62 733.246 1696.66 647.545 1730.25C561.221 1676.03 524.732 1573.78 562.625 1484.71L565.595 1477.73L571.166 1464.62C665.979 1431.55 734.211 1341.32 734.211 1235.39C734.211 1101.54 625.309 992.643 491.451 992.643C357.594 992.643 248.677 1101.54 248.677 1235.39C248.677 1302.95 276.454 1364.13 321.15 1408.18C312.814 1425.84 304.352 1443.45 295.764 1460.99C254.893 1544.91 208.578 1640.04 191.058 1745.68C156.27 1955.48 212.389 2123.19 349.083 2217.91C432.028 2275.39 516.265 2298 601.03 2298C760.637 2298 922.1 2217.82 1080.02 2139.38C1193.75 2082.9 1311.36 2024.49 1427.52 1995.84C1470.75 1985.18 1515.22 1978.77 1562.31 1971.98C1655.69 1958.51 1752.24 1944.58 1837.77 1895.06C1936.91 1837.63 2004.77 1741.31 2023.97 1630.81C2040.44 1535.93 2020.62 1440.91 1972.27 1360.32C1995.56 1322.3 2007.87 1278.57 2007.82 1233.99V1234Z" fill="white"/>
</svg>
