
<svg width="2500" height="2500" viewBox="0 0 2500 2500" fill="none" xmlns="http://www.w3.org/2000/svg">
<g clip-path="url(#clip0_7_11)">
<path d="M1259.55 190.442L1307.15 279.839C1317.85 296.338 1329.45 310.938 1343.05 324.537C1383.04 364.035 1420.34 406.234 1454.64 450.832C1535.24 556.628 1589.64 674.223 1628.43 801.418C1651.73 879.015 1664.33 958.812 1665.33 1039.31C1669.23 1280.2 1586.64 1486.99 1420.24 1658.88C1393.24 1686.08 1363.95 1711.18 1332.75 1733.58C1316.25 1733.58 1308.45 1720.98 1301.65 1709.28C1289.25 1687.68 1281.05 1663.98 1277.35 1639.38C1271.45 1610.19 1267.65 1581.09 1269.55 1551.09V1537.49C1268.25 1534.39 1253.75 197.342 1259.55 190.442Z" fill="#599636"/>
<path d="M1259.55 187.543C1257.65 183.643 1255.65 186.543 1253.65 188.542C1254.65 208.042 1247.75 225.441 1237.15 242.04C1225.45 258.54 1209.95 271.239 1194.35 284.839C1108.06 359.536 1040.06 449.932 985.66 550.928C913.163 686.823 875.865 832.517 865.365 986.011C860.566 1041.31 882.865 1236.5 900.364 1292.8C947.962 1442.39 1033.36 1567.69 1144.15 1676.38C1171.35 1702.58 1200.45 1726.88 1230.45 1750.28C1239.25 1750.28 1240.15 1742.48 1242.15 1736.68C1246.05 1724.28 1248.95 1711.68 1250.95 1698.88L1270.45 1553.29L1259.55 187.543Z" fill="#6CAC48"/>
<path d="M1307.15 1792.58C1309.05 1770.28 1319.75 1751.88 1331.45 1733.38C1319.75 1728.58 1311.05 1718.88 1304.25 1708.18C1298.35 1697.98 1293.55 1687.28 1289.75 1676.08C1276.15 1635.38 1273.25 1592.49 1269.35 1550.89V1525.69C1264.55 1529.59 1263.45 1562.59 1263.45 1567.49C1260.65 1611.59 1254.75 1655.28 1245.95 1698.58C1243.05 1716.08 1241.15 1733.58 1230.35 1749.08C1230.35 1750.98 1230.35 1752.98 1231.35 1755.88C1248.85 1807.38 1253.65 1859.78 1256.55 1913.27V1932.77C1256.55 1956.07 1255.55 1951.17 1274.95 1958.97C1282.75 1961.87 1291.45 1962.87 1299.25 1968.67C1305.15 1968.67 1306.05 1963.87 1306.05 1959.87L1303.15 1927.77V1838.38C1302.25 1822.78 1305.15 1807.28 1307.15 1792.58Z" fill="#C2BFBF"/>
<path d="M479.311 2226.41V2269.6C479.311 2271.34 479.311 2273.08 479.618 2274.71C480.128 2279.81 483.294 2282.98 487.888 2284.41C492.177 2285.53 496.567 2286.35 500.958 2286.96C503.511 2287.27 504.328 2288.39 504.634 2291.15C504.94 2300.85 504.124 2301.97 494.729 2301.36C472.878 2300.24 450.925 2299.93 429.074 2301.36H427.032C420.19 2301.67 419.68 2301.05 419.68 2294.21C419.68 2293.09 419.986 2291.66 419.986 2290.54C419.986 2288.49 421.416 2287.37 423.356 2287.37C427.951 2286.86 432.137 2285.63 436.426 2284.82C442.347 2283.39 445.819 2279.71 446.33 2273.69C447.147 2267.15 447.147 2260.31 447.147 2253.78L447.453 2177.6C447.657 2173.11 445.207 2168.92 441.224 2166.78C436.12 2163.92 430.605 2161.68 424.989 2159.94C423.253 2159.43 421.619 2159.12 420.19 2158.2C416.003 2156.16 415.901 2152.48 419.884 2150.24C421.314 2149.42 423.049 2148.81 424.683 2148.5C441.916 2145.95 458.849 2141.68 475.227 2135.74C478.597 2134.62 479.515 2134.92 479.822 2138.29C480.128 2140.33 479.822 2142.89 479.515 2144.83C479.005 2148.5 479.005 2152.18 479.005 2155.65C479.005 2157.08 479.311 2158.51 480.741 2159.33C482.171 2160.14 483.6 2159.33 484.927 2158.51C490.849 2153.91 496.874 2149.73 503.409 2146.05C512.802 2140.95 522.707 2136.35 533.531 2134.92C546.6 2133.19 557.935 2136.66 567.941 2145.13C572.025 2148.81 575.701 2153 578.765 2157.59C581.624 2161.78 581.93 2161.88 585.606 2159.02C596.429 2151.06 607.764 2144.01 620.016 2138.8C632.78 2133.39 645.849 2132.57 658.92 2137.07C672.296 2141.87 681.384 2151.26 686.796 2164.02C691.39 2174.23 693.33 2184.85 693.33 2195.88V2272.05C693.33 2277.16 695.372 2280.32 700.478 2282.88C705.89 2284.92 711.812 2286.04 717.529 2287.17C721.205 2287.98 721.205 2287.98 721.205 2291.76C720.695 2301.15 719.775 2301.67 710.689 2301.16C687.904 2299.83 665.061 2299.83 642.276 2301.16C637.682 2301.46 637.682 2301.46 637.477 2296.87V2295.44C637.171 2287.78 637.171 2287.78 644.624 2286.04L651.976 2284C657.082 2282.78 660.758 2278.18 660.758 2272.87L661.575 2251.53L661.065 2195.88C660.86 2190.88 659.839 2185.98 657.899 2181.38C650.751 2164.02 635.129 2157.79 620.118 2159.53C608.785 2160.65 598.778 2165.25 589.383 2171.78C587.342 2173.21 586.014 2174.95 586.219 2177.71C588.771 2195.88 587.036 2214.06 587.342 2232.23V2271.75C587.342 2278.9 590.201 2282.26 597.041 2284L610.112 2286.86C612.154 2287.17 613.277 2287.98 613.277 2290.23V2292.27C612.971 2300.24 612.461 2300.54 604.496 2300.54C581.726 2299.42 559.058 2299.73 536.594 2300.54C528.936 2300.85 528.324 2300.03 528.629 2292.27C528.936 2287.68 529.446 2287.47 533.735 2286.55L543.128 2284.82C551.4 2283.08 554.463 2280.02 555.076 2271.14L555.892 2252.04L555.382 2194.96C554.872 2187.81 553.34 2181.08 549.459 2174.54C543.741 2164.02 534.858 2158.61 522.707 2158.1C510.454 2157.28 499.733 2161.78 489.419 2167.5C482.272 2171.68 479.21 2176.58 479.72 2184.85V2226.31L479.311 2226.41ZM1014.66 2228.15V2268.17C1014.66 2271.03 1014.87 2273.89 1015.18 2276.65C1015.38 2280.53 1018.24 2283.8 1022.02 2284.61C1026.92 2286.04 1031.92 2286.86 1037.03 2287.17C1039.89 2287.47 1040.4 2288.6 1040.7 2290.84V2292.88C1040.4 2302.79 1039.27 2304.01 1029.57 2303.4C1007.93 2301.97 986.381 2302.28 964.835 2303.4L956.566 2303.71C954.83 2303.71 954.523 2302.89 954.013 2301.67C953.196 2297.73 953.196 2293.66 954.013 2289.72C954.319 2287.98 955.443 2287.68 957.178 2287.17C961.365 2286.66 964.836 2285.74 968.818 2285.12C975.966 2283.39 978.518 2280.53 978.723 2273.18L979.54 2249.28V2179.34C979.54 2174.23 977.498 2171.07 973.005 2168.82C967.899 2165.96 962.488 2164.02 956.77 2161.98C955.034 2161.47 953.4 2160.86 951.97 2159.94C948.294 2157.39 947.784 2153.71 951.46 2150.85C953.094 2149.52 955.034 2148.71 957.178 2148.61C975.353 2145.75 993.018 2141.76 1010.07 2134.92C1012.11 2134.11 1012.93 2134.62 1013.75 2136.35C1014.56 2138.09 1014.87 2140.03 1014.56 2142.07L1013.75 2155.45C1013.75 2157.18 1012.93 2159.63 1014.26 2160.25C1015.99 2161.37 1017.12 2158.82 1018.55 2158.2C1026.92 2151.16 1036.19 2145.25 1046.11 2140.64C1054.9 2136.45 1063.98 2133.8 1074.19 2134.41C1093.29 2135.54 1106.87 2145.24 1115.65 2161.98C1120.25 2170.76 1122.19 2180.46 1123 2190.37L1123.82 2211.2L1124.13 2273.99C1124.43 2278.79 1126.17 2281.96 1130.97 2283.69C1135.97 2285.33 1141.09 2286.56 1146.28 2287.37C1150.88 2287.88 1151.08 2288.8 1151.39 2293.09V2294.52C1150.88 2304.22 1150.26 2304.42 1140.56 2303.91C1119.37 2302.79 1098.14 2302.79 1076.95 2303.91C1074.09 2304.22 1071.23 2303.91 1068.68 2304.22C1066.94 2304.22 1065.82 2303.91 1065.51 2302.18C1065 2298.5 1064.39 2294.82 1065.21 2290.84C1065.51 2289.11 1066.33 2288.29 1068.37 2287.98L1081.44 2285.94C1086.04 2284.82 1088.59 2281.75 1089.1 2277.67L1089.61 2269.71L1089.31 2210.28C1089.31 2203.44 1089 2196.6 1087.57 2189.86C1084.2 2175.26 1073.07 2164.94 1058.06 2163.41C1044.99 2161.98 1033.15 2165.45 1022.22 2172.5C1016.81 2175.87 1014.56 2180.77 1014.56 2186.69V2229.58C1014.56 2228.76 1014.56 2228.76 1014.87 2228.76L1014.66 2228.15Z" fill="#47474A"/>
<path d="M1846.75 2147.79C1843.58 2127.06 1835.92 2108.58 1822.55 2092.34C1810.91 2078.05 1795.9 2066.92 1778.74 2059.97C1760.87 2052.62 1741.78 2050.28 1722.48 2049.77C1714.52 2049.46 1605.97 2051.19 1598.01 2049.77C1595.97 2049.46 1594.64 2050.07 1593.42 2051.81C1591.99 2053.85 1590.56 2056.09 1589.74 2058.34C1586.37 2066 1586.37 2065.49 1594.54 2066.61C1601.38 2067.74 1607.91 2068.35 1614.45 2070.29C1620.37 2072.33 1624.66 2075.7 1626.09 2082.23C1626.6 2085.4 1627.21 2185.36 1627.21 2231.93L1626.09 2265.21C1625.78 2267.77 1625.58 2270.32 1624.66 2272.57C1623.54 2275.93 1621.49 2278.79 1618.13 2280.22C1614.35 2281.96 1610.37 2283.08 1606.18 2283.39C1598.52 2284.2 1597.4 2284.51 1594.84 2293.09L1594.03 2296.25C1593.52 2299.93 1593.72 2300.54 1597.4 2300.54L1682.35 2301.36L1715.64 2300.85L1738.61 2297.99C1764.75 2293.19 1788.03 2282.37 1807.94 2265.01C1819.28 2255 1828.57 2242.85 1835.21 2229.17C1843.17 2213.24 1846.54 2195.88 1847.46 2178.32C1848.99 2168.21 1848.48 2158 1846.75 2147.79ZM1805.6 2188.12C1804.47 2206.3 1800.8 2223.96 1791.4 2239.79C1779.46 2260.52 1762.4 2275.02 1738.82 2280.12C1728.61 2282.16 1718.4 2283.29 1707.67 2281.86C1700.02 2281.04 1692.66 2280.12 1685.52 2277.57C1672.75 2272.97 1668.16 2265.11 1667.95 2252.65L1667.65 2081.32C1667.65 2071.11 1672.24 2068.86 1679.59 2068.55C1690.72 2067.74 1702.06 2068.04 1713.09 2069.06C1724.93 2070.19 1736.47 2073.05 1747.5 2077.33C1755.67 2080.7 1763.22 2085.4 1769.96 2091.22C1785.28 2104.29 1795.49 2120.73 1801.1 2140.03C1805.7 2155.65 1806.51 2171.58 1805.7 2187.51L1805.6 2188.12ZM2082.92 2216C2082.92 2214.26 2082.92 2212.83 2082.62 2211.2C2080.06 2195.58 2071.79 2183.63 2059.03 2174.54C2050.76 2168.62 2041.47 2164.64 2031.77 2161.78C2030.03 2161.27 2028.6 2160.65 2026.97 2160.35C2027.27 2158.92 2028.09 2158.61 2029.01 2158.31C2034.73 2155.45 2040.14 2152.38 2044.94 2148.1C2053.72 2140.74 2059.54 2131.66 2062.5 2120.53C2064.24 2114.6 2064.24 2108.58 2063.62 2102.35C2062.7 2087.54 2055.05 2073.96 2042.9 2065.39C2029.83 2055.69 2014.51 2051.7 1998.58 2051.5C1967.85 2050.99 1936.91 2051.5 1906.27 2051.5C1897.49 2051.5 1888.71 2052.01 1879.52 2050.68C1877.79 2050.38 1875.34 2049.87 1874.11 2051.81C1872.07 2055.48 1869.52 2059.16 1868.7 2063.45C1868.39 2065.49 1869.01 2066.61 1871.25 2066.82L1890.86 2069.68C1898.51 2070.8 1903.93 2075.09 1904.54 2081.93C1905.05 2086.63 1905.36 2091.42 1905.36 2096.12L1904.85 2149.22L1904.54 2254.29C1904.54 2260.52 1903.72 2266.54 1902.5 2272.77C1901.88 2276.85 1899.03 2280.12 1895.15 2281.24C1889.43 2282.98 1884.02 2284.61 1878.09 2284.61C1874.83 2284.31 1871.76 2286.35 1870.74 2289.41C1869.62 2291.97 1868.7 2294.82 1868.19 2297.38C1867.68 2300.75 1868.49 2301.97 1871.86 2301.56C1874.42 2301.26 1968.15 2303.61 1985.82 2301.87C1996.33 2300.75 2006.65 2299.32 2017.06 2296.15C2034.93 2290.43 2051.47 2282.26 2064.54 2268.28C2075.37 2256.94 2081.59 2243.26 2082.11 2227.33C2082.92 2223.66 2082.92 2219.98 2082.92 2216ZM1945.08 2099.49L1945.89 2076.72C1945.89 2072.43 1947.63 2070.49 1951.82 2069.57C1958.66 2068.14 1965.5 2068.76 1972.24 2069.06C1979.08 2069.57 1985.61 2070.49 1992.45 2072.43C2004.91 2076.11 2014.61 2083.26 2020.33 2095.2C2022.88 2100.61 2024.31 2106.54 2024.31 2112.56C2024.62 2120.53 2024.01 2128.18 2020.94 2135.84C2016.14 2146.36 2008.48 2153.2 1997.36 2155.14C1986.23 2157.18 1954.78 2156.26 1949.88 2156.26C1945.59 2156.26 1945.28 2155.75 1945.28 2151.46V2124.71C1944.57 2116.44 1944.57 2108.07 1944.97 2099.7L1945.08 2099.49ZM2037.38 2252.35C2032.58 2265.11 2023.7 2273.99 2011.24 2278.79C2004.4 2281.35 1997.56 2282.98 1990.41 2282.47C1981.63 2282.16 1972.85 2282.47 1963.97 2280.73C1952.02 2278.18 1946.61 2266.85 1945.79 2258.58C1944.36 2244.08 1945.28 2229.27 1944.97 2218.55V2181.08C1944.97 2176.48 1945.48 2175.15 1950.39 2175.15L1977.14 2175.46L1995.31 2177.5C2008.08 2180.36 2019.72 2185.16 2028.8 2195.06C2036.16 2203.03 2040.14 2212.63 2041.06 2223.14C2041.87 2233.05 2041.36 2242.75 2037.69 2252.14L2037.38 2252.35Z" fill="#C2BFBF"/>
<path d="M1315.48 2166.78L1322.83 2167.9C1330.79 2168.21 1340.19 2165.35 1343.05 2154.22C1344.58 2148.92 1344.58 2143.29 1343.05 2137.99C1341.31 2137.99 1340.49 2139.42 1339.68 2140.03C1335.39 2143.4 1330.59 2145.44 1325.48 2145.95C1315.27 2147.07 1305.06 2146.46 1295.05 2142.79L1281.17 2137.99C1271.47 2134.82 1261.26 2133.49 1251.05 2134C1236.55 2135.13 1222.97 2139.93 1210.1 2146.77C1196.42 2154.12 1186.82 2165.25 1182.22 2180.26C1179.67 2189.04 1179.36 2198.13 1180.49 2207.22C1183.35 2227.94 1194.17 2242.44 1213.47 2250.1C1214.59 2250.41 1215.51 2250.92 1216.64 2251.22C1219.19 2252.65 1219.49 2254.08 1217.15 2256.02L1210 2260.82L1192.95 2271.34C1188.66 2273.89 1188.15 2275.93 1189.58 2280.43C1191.31 2285.74 1194.38 2290.43 1198.66 2294.11C1202.54 2297.48 1206.93 2300.13 1211.73 2302.07C1214.9 2303.5 1214.9 2304.12 1212.04 2306.67L1195.81 2318.31C1190.39 2322.5 1184.98 2326.58 1180.49 2331.99C1177.33 2335.35 1175.05 2339.44 1173.86 2343.89C1172.66 2348.35 1172.59 2353.03 1173.65 2357.52C1175.79 2367.42 1180.9 2376.31 1188.45 2383.05C1195.83 2389.91 1204.82 2394.79 1214.59 2397.24C1230.52 2401.83 1246.96 2402.04 1263.2 2398.97C1286.48 2394.69 1306.9 2384.37 1322.83 2366.91C1333.96 2355.27 1340.39 2341.59 1341 2325.35C1342.33 2305.85 1329.26 2288.39 1310.27 2283.9L1294.95 2281.04L1248.08 2276.85C1242.98 2276.55 1237.87 2275.73 1233.58 2273.18C1228.17 2269.81 1226.74 2263.27 1230.21 2258.98C1232.77 2255.82 1235.93 2253.88 1239.92 2253.57L1249 2252.76C1266.96 2250.93 1283.82 2243.25 1296.99 2230.9C1304.03 2224.38 1309.06 2215.99 1311.49 2206.71C1314.86 2194.45 1314.86 2181.79 1312 2169.33C1311.19 2166.17 1311.49 2165.96 1315.37 2166.47L1315.48 2166.78ZM1245.84 2308.3C1247.57 2308.61 1249.21 2308.3 1250.94 2308.3C1262.89 2308.81 1275.14 2309.73 1286.78 2312.9C1290.56 2314.02 1294.34 2315.45 1297.91 2317.19C1309.25 2323.42 1313.54 2334.24 1312.11 2345.88C1310.37 2358.64 1303.32 2367.73 1292.2 2373.75C1284.84 2377.94 1276.57 2379.68 1268 2380.6C1264.83 2380.9 1262.07 2380.6 1258.91 2380.6C1249 2380.9 1239.3 2379.78 1229.91 2375.8C1223.37 2373.24 1217.96 2369.57 1213.16 2364.46C1203.26 2354.56 1198.56 2336.38 1213.47 2321.58C1222.56 2313.1 1232.77 2307.18 1245.84 2308.3ZM1278.31 2219.67C1272.39 2234.68 1259.21 2239.28 1246.25 2237.24C1234.3 2235.5 1225.52 2228.96 1219.8 2218.14C1212.45 2203.64 1210.41 2188.63 1214.7 2173.01C1217.86 2161.37 1224.9 2152.59 1237.46 2150.54C1253.39 2147.69 1268.61 2153.4 1276.67 2169.33C1280.86 2176.99 1282.6 2186.39 1282.6 2199.76C1282.29 2205.17 1281.17 2212.53 1278.31 2219.67ZM920.317 2200.27C917.764 2184.96 912.046 2170.97 901.528 2159.33C885.906 2141.97 865.995 2134.41 843.531 2134.31C823.927 2134 805.445 2139.72 789.005 2149.93C772.77 2159.63 760.926 2175.15 755.718 2193.43C750.919 2209.87 751.123 2226.72 754.902 2243.46C764.805 2288.39 799.523 2307.69 840.978 2304.83C853.232 2304.01 864.872 2300.03 875.9 2294.62C892.339 2286.96 904.286 2274.71 912.556 2258.58C919.091 2245.2 921.95 2231.01 921.644 2214.77L920.317 2200.27ZM879.984 2263.38C875.798 2276.44 864.361 2285.84 850.679 2287.27C838.221 2289 826.48 2285.84 816.064 2278.49C808.508 2272.87 802.382 2265.62 798.195 2257.15C786.555 2233.25 784.512 2208.34 790.537 2182.71C792.477 2174.75 796.561 2167.6 802.484 2161.98C813 2152.28 825.254 2150.03 838.834 2152.89C851.904 2155.75 861.808 2162.8 869.977 2173.62C878.146 2184.45 881.924 2196.9 884.17 2209.97C885.293 2216.51 885.293 2223.35 885.6 2227.53C885.6 2241.22 884.476 2252.45 880.188 2263.38H879.984ZM1541.14 2202.62C1539.09 2186.18 1532.86 2171.07 1521.22 2158.61C1505.91 2141.87 1486 2134.72 1463.84 2134.41C1444.74 2134.11 1427.18 2139.52 1410.95 2148.91C1392.77 2159.73 1380.21 2175.05 1375.41 2195.78C1369.7 2218.45 1372.04 2242.34 1382.25 2263.38C1391.65 2283.29 1407.58 2296.05 1428.61 2301.77C1451.89 2308 1474.05 2305.14 1495.7 2294.62C1514.49 2285.53 1527.76 2271.34 1535.52 2252.04C1540.11 2240.71 1541.75 2228.45 1542.05 2214.26C1542.26 2211.71 1541.65 2207.11 1541.14 2202.62ZM1501.93 2259.7C1497.33 2275.01 1487.73 2285.02 1471.5 2287.27C1459.55 2289 1448.22 2286.15 1438.01 2279.3C1429.22 2273.38 1423 2265.42 1418.4 2256.02C1413.3 2246.12 1410.44 2235.6 1409.31 2224.78C1407.58 2211.4 1407.58 2198.33 1410.74 2184.96C1411.36 2182.3 1412.17 2179.75 1413.3 2177.3C1421.26 2157.39 1438.82 2148.3 1459.65 2152.89C1473.54 2156.06 1484.06 2163.72 1492.02 2175.36C1499.68 2186.69 1503.35 2199.25 1505.09 2212.73C1505.91 2218.14 1506.21 2223.86 1505.91 2228.66C1505.91 2239.79 1505.09 2250 1501.72 2259.9L1501.93 2259.7Z" fill="#47474A"/>
</g>
<defs>
<clipPath id="clip0_7_11">
<rect width="2500" height="2500" fill="white"/>
</clipPath>
</defs>
</svg>
